<?xml version="1.0" standalone="no"?>
<!DOCTYPE svg PUBLIC "-//W3C//DTD SVG 20010904//EN"
 "http://www.w3.org/TR/2001/REC-SVG-20010904/DTD/svg10.dtd">
<svg version="1.0" xmlns="http://www.w3.org/2000/svg"
 width="819.000000pt" height="819.000000pt" viewBox="0 0 819.000000 819.000000"
 preserveAspectRatio="xMidYMid meet">
<metadata>
Created by potrace 1.11, written by Peter Selinger 2001-2013
</metadata>
<g transform="translate(0.000000,819.000000) scale(0.100000,-0.100000)"
fill="#000000" stroke="none">
<path d="M3868 8184 c-2 -2 -37 -6 -78 -9 -41 -3 -86 -7 -100 -9 -14 -2 -52
-7 -85 -11 -75 -8 -297 -52 -330 -65 -14 -5 -25 -7 -25 -5 0 2 -11 0 -26 -5
-14 -6 -37 -12 -52 -15 -55 -9 -301 -94 -418 -143 -180 -76 -386 -180 -482
-243 -24 -16 -45 -29 -48 -29 -14 0 -380 -263 -404 -290 -3 -3 -34 -30 -70
-60 -157 -134 -382 -372 -528 -559 -115 -147 -312 -444 -312 -470 0 -5 -4 -11
-9 -13 -14 -5 -159 -293 -220 -437 -80 -187 -190 -511 -215 -634 -3 -12 -18
-83 -35 -157 -37 -167 -44 -212 -65 -380 -4 -30 -9 -66 -11 -80 -25 -157 -25
-820 0 -952 2 -11 7 -46 10 -77 6 -51 13 -98 30 -201 4 -19 8 -46 10 -60 2
-14 11 -59 20 -100 9 -41 18 -84 20 -95 22 -114 139 -479 205 -644 143 -354
359 -725 595 -1022 122 -152 136 -168 300 -333 359 -362 730 -614 1194 -812
166 -72 482 -171 631 -198 14 -2 45 -9 70 -14 25 -6 81 -16 126 -22 44 -6 91
-12 103 -15 129 -25 643 -25 826 -1 104 14 141 20 235 37 157 30 327 74 474
124 72 25 136 47 141 49 6 1 26 9 45 18 19 8 63 27 97 41 850 361 1597 1123
1993 2032 28 66 56 129 61 140 36 80 161 469 174 546 3 15 9 39 14 52 5 13 12
40 15 60 3 20 10 56 15 79 5 24 12 59 15 78 3 19 10 60 16 90 6 30 13 73 15
95 10 80 17 141 21 170 12 96 18 239 18 455 0 215 -9 454 -19 470 -1 3 -6 41
-10 85 -3 43 -8 82 -10 85 -2 4 -10 50 -20 125 -6 47 -39 198 -66 310 -42 170
-82 298 -145 470 -4 11 -8 22 -9 25 -1 3 -5 14 -10 25 -4 11 -24 58 -43 105
-83 205 -224 470 -357 675 -54 83 -214 305 -239 331 -6 6 -31 36 -56 65 -178
212 -373 398 -636 607 -55 43 -310 210 -393 257 -228 129 -561 271 -751 321
-176 46 -255 65 -300 74 -71 13 -99 18 -130 25 -30 6 -126 18 -250 31 -53 6
-528 13 -532 8z m2614 -5086 c-7 -7 -12 -8 -12 -2 0 14 12 26 19 19 2 -3 -1
-11 -7 -17z"/>
</g>
</svg>
